<svg xmlns="http://www.w3.org/2000/svg" viewBox="0 0 100 100">
  <defs>
    <linearGradient id="cloudGradient" x1="0%" y1="0%" x2="0%" y2="100%">
      <stop offset="0%" style="stop-color:#60a5fa;stop-opacity:1" />
      <stop offset="100%" style="stop-color:#3b82f6;stop-opacity:1" />
    </linearGradient>
  </defs>
  <path d="M 75 45 C 75 35 67 27 57 27 C 55 27 53 27.5 51 28 C 48 18 39 11 28 11 C 15 11 5 21 5 34 C 5 35 5 36 5.2 37 C 2 39 0 43 0 47 C 0 53 4.5 58 10 58 L 70 58 C 78 58 85 51 85 43 C 85 37 81 32 75 30 Z" fill="url(#cloudGradient)" stroke="#1e40af" stroke-width="2"/>
</svg>
